<svg xmlns="http://www.w3.org/2000/svg" viewBox="0 0 256 256" enable-background="new 0 0 256 256"><style type="text/css">.st0{fill:#4F9AD4;}</style><path class="st0" d="M40.6 110.4s-1.8-4.4-1.8-9.9l1.8-9.9c-.3 0-37.3 9.9-37.3 9.9s37 9.9 37.3 9.9zM215.9 90.7s1.8 4.4 1.8 9.9l-1.8 9.9c.3 0 37.3-9.9 37.3-9.9s-37.1-9.9-37.3-9.9z"/><circle class="st0" cx="89.9" cy="100" r="11.2"/><path class="st0" d="M196.5 86.2c1.4 0 2.6 1.2 2.6 2.6v23.5c0 1.4-1.2 2.6-2.6 2.6h-136.6c-1.4 0-2.6-1.2-2.6-2.6v-23.5c0-1.4 1.2-2.6 2.6-2.6h136.6m0-13.4h-136.6c-8.8 0-16 7.2-16 16v23.5c0 8.8 7.2 16 16 16h136.6c8.8 0 16-7.2 16-16v-23.5c0-8.9-7.2-16-16-16zM127.2 168.6c-20.2 0-37.3 30.6-37.3 66.7 0 4.1.2 8.2.7 12.1 10.4 3.3 23 5.2 36.7 5.2s26.3-1.9 36.7-5.2c.4-3.9.7-8 .7-12.1-.2-36.1-17.2-66.7-37.5-66.7zm-22.5 65.2c0 2.4-2 4.4-4.4 4.4-2.4 0-4.4-2-4.4-4.4v-15.4c0-2.4 2-4.4 4.4-4.4 2.4 0 4.4 2 4.4 4.4v15.4zm17.7 0c0 2.4-2 4.4-4.4 4.4-2.4 0-4.4-2-4.4-4.4v-15.4c0-2.4 2-4.4 4.4-4.4 2.4 0 4.4 2 4.4 4.4v15.4zm17.8 0c0 2.4-2 4.4-4.4 4.4-2.4 0-4.4-2-4.4-4.4v-15.4c0-2.4 2-4.4 4.4-4.4 2.4 0 4.4 2 4.4 4.4v15.4zm17.7 0c0 2.4-2 4.4-4.4 4.4-2.4 0-4.4-2-4.4-4.4v-15.4c0-2.4 2-4.4 4.4-4.4 2.4 0 4.4 2 4.4 4.4v15.4zM63.6 116.9v11.4h92.2c1.7 0 3.1 1.4 3.1 3.1 0 1.7-1.4 3.1-3.1 3.1h-92.2v89.7c0 7.6 6.8 14.5 17.8 19.6-.2-2.8-.3-5.7-.3-8.6 0-42.4 20.3-75.6 46.1-75.6 25.9 0 46.1 33.2 46.1 75.6 0 2.9-.1 5.8-.3 8.6 11-5.1 17.8-12 17.8-19.6v-107.3h-127.2zM127.2 59.2c-2.2 0-4-1.8-4-4s1.8-4 4-4h63.1c-.7-2.2-1.6-4.4-2.5-6.5h-37.5c-3.7 0-6.7-3-6.7-6.7s3-6.7 6.7-6.7h29.8c-12.1-16.5-31.3-26.8-52.9-26.8-33.9 0-61.8 25.3-66 59.8h132c-.2-1.7-.5-3.4-.9-5.1h-65.1zm4.6-28.3c3.9 0 7 3.1 7 7s-3.1 7-7 7-7-3.1-7-7 3.2-7 7-7z"/></svg>