<?xml version="1.0" encoding="utf-8"?>
<!-- Generator: Adobe Illustrator 18.1.0, SVG Export Plug-In . SVG Version: 6.00 Build 0)  -->
<!DOCTYPE svg PUBLIC "-//W3C//DTD SVG 1.1//EN" "http://www.w3.org/Graphics/SVG/1.1/DTD/svg11.dtd">
<svg version="1.1" id="Layer_1" xmlns="http://www.w3.org/2000/svg" xmlns:xlink="http://www.w3.org/1999/xlink" x="0px" y="0px"
	 viewBox="0 0 256 256" style="enable-background:new 0 0 256 256;" xml:space="preserve">
<style type="text/css">
	.st0{fill:#4F9AD4;}
</style>
<path class="st0" d="M40.6,110.4c0,0-1.8-4.4-1.8-9.9s1.8-9.9,1.8-9.9l0,0l0,0h0c-0.3,0-37.3,9.9-37.3,9.9S40.3,110.4,40.6,110.4
	L40.6,110.4z"/>
<path class="st0" d="M215.9,90.7c0,0,1.8,4.4,1.8,9.9s-1.8,9.9-1.8,9.9l0,0l0,0h0c0.3,0,37.3-9.9,37.3-9.9S216.1,90.7,215.9,90.7
	L215.9,90.7z"/>
<circle class="st0" cx="89.9" cy="100" r="11.2"/>
<path class="st0" d="M196.5,86.2c1.4,0,2.6,1.2,2.6,2.6v23.5c0,1.4-1.2,2.6-2.6,2.6H59.9c-1.4,0-2.6-1.2-2.6-2.6V88.8
	c0-1.4,1.2-2.6,2.6-2.6H196.5 M196.5,72.8H59.9c-8.8,0-16,7.2-16,16v23.5c0,8.8,7.2,16,16,16h136.6c8.8,0,16-7.2,16-16V88.8
	C212.5,79.9,205.3,72.8,196.5,72.8L196.5,72.8z"/>
<path class="st0" d="M127.2,168.6c-20.2,0-37.3,30.6-37.3,66.7c0,4.1,0.2,8.2,0.7,12.1c10.4,3.3,23,5.2,36.7,5.2s26.3-1.9,36.7-5.2
	c0.4-3.9,0.7-8,0.7-12.1C164.5,199.2,147.5,168.6,127.2,168.6z M104.7,233.8c0,2.4-2,4.4-4.4,4.4c-2.4,0-4.4-2-4.4-4.4v-15.4
	c0-2.4,2-4.4,4.4-4.4c2.4,0,4.4,2,4.4,4.4V233.8z M122.4,233.8c0,2.4-2,4.4-4.4,4.4c-2.4,0-4.4-2-4.4-4.4v-15.4c0-2.4,2-4.4,4.4-4.4
	c2.4,0,4.4,2,4.4,4.4V233.8z M140.2,233.8c0,2.4-2,4.4-4.4,4.4c-2.4,0-4.4-2-4.4-4.4v-15.4c0-2.4,2-4.4,4.4-4.4c2.4,0,4.4,2,4.4,4.4
	V233.8z M157.9,233.8c0,2.4-2,4.4-4.4,4.4c-2.4,0-4.4-2-4.4-4.4v-15.4c0-2.4,2-4.4,4.4-4.4c2.4,0,4.4,2,4.4,4.4V233.8z"/>
<path class="st0" d="M63.6,116.9v11.4h92.2c1.7,0,3.1,1.4,3.1,3.1c0,1.7-1.4,3.1-3.1,3.1H63.6v89.7c0,7.6,6.8,14.5,17.8,19.6
	c-0.2-2.8-0.3-5.7-0.3-8.6c0-42.4,20.3-75.6,46.1-75.6c25.9,0,46.1,33.2,46.1,75.6c0,2.9-0.1,5.8-0.3,8.6c11-5.1,17.8-12,17.8-19.6
	V116.9H63.6z"/>
<path class="st0" d="M127.2,59.2c-2.2,0-4-1.8-4-4c0-2.2,1.8-4,4-4h63.1c-0.7-2.2-1.6-4.4-2.5-6.5h-37.5c-3.7,0-6.7-3-6.7-6.7
	s3-6.7,6.7-6.7h29.8C168,14.8,148.8,4.5,127.2,4.5c-33.9,0-61.8,25.3-66,59.8h132c-0.2-1.7-0.5-3.4-0.9-5.1L127.2,59.2L127.2,59.2z
	 M131.8,30.9c3.9,0,7,3.1,7,7c0,3.9-3.1,7-7,7c-3.9,0-7-3.1-7-7C124.8,34,128,30.9,131.8,30.9z"/>
<g>
</g>
<g>
</g>
<g>
</g>
<g>
</g>
<g>
</g>
<g>
</g>
</svg>
